<svg fill="none" height="24" viewBox="0 0 24 24" width="24" xmlns="http://www.w3.org/2000/svg"><g fill="#1c274c"><path d="m17.625 20.5917c.6416-.5444 1.6084-.5444 2.25 0 .4359.3699 1.125.0745 1.125-.4823v-16.21881c0-.55676-.6891-.85217-1.125-.48227-.6416.54442-1.6084.54442-2.25 0-.6416-.54443-1.6084-.54443-2.25 0-.6416.54442-1.6084.54442-2.25 0-.6416-.54443-1.6084-.54443-2.25 0-.6416.54442-1.60841.54442-2.25 0-.64159-.54443-1.60841-.54443-2.25 0-.64159.54442-1.60841.54442-2.25 0-.43591-.3699-1.125-.07449-1.125.48227v16.21881c0 .5568.68909.8522 1.125.4823.64159-.5444 1.60841-.5444 2.25 0s1.60841.5444 2.25 0 1.6084-.5444 2.25 0 1.6084.5444 2.25 0 1.6084-.5444 2.25 0 1.6084.5444 2.25 0z" opacity=".5"/><path d="m6.75 15.5c0-.4142.33579-.75.75-.75h9c.4142 0 .75.3358.75.75s-.3358.75-.75.75h-9c-.41421 0-.75-.3358-.75-.75z"/><path d="m6.75 12c0-.4142.33579-.75.75-.75h9c.4142 0 .75.3358.75.75s-.3358.75-.75.75h-9c-.41421 0-.75-.3358-.75-.75z"/><path d="m6.75 8.5c0-.41421.33579-.75.75-.75h9c.4142 0 .75.33579.75.75s-.3358.75-.75.75h-9c-.41421 0-.75-.33579-.75-.75z"/></g></svg>